<?xml version="1.0" encoding="UTF-8"?>
<svg width="17px" height="23px" viewBox="0 0 17 23" version="1.1" xmlns="http://www.w3.org/2000/svg" xmlns:xlink="http://www.w3.org/1999/xlink">
    <!-- Generator: Sketch 40.3 (33839) - http://www.bohemiancoding.com/sketch -->
    <title>Shape</title>
    <desc>Created with Sketch.</desc>
    <defs></defs>
    <g id="Page-1" stroke="none" stroke-width="1" fill="none" fill-rule="evenodd">
        <g id="Desktop-HD" transform="translate(-216.000000, -2012.000000)" fill="#000000">
            <path d="M225.015232,2012.5 C219.022134,2012.5 216,2016.80427 216,2020.39441 C216,2022.56776 216.821371,2024.50114 218.582775,2025.22103 C218.871711,2025.34034 219.13065,2025.22545 219.214464,2024.90506 C219.272692,2024.6841 219.410763,2024.12463 219.47208,2023.89086 C219.556334,2023.574 219.523691,2023.46352 219.290337,2023.18644 C218.782604,2022.58676 218.457496,2021.80987 218.457496,2020.70861 C218.457496,2017.51532 220.842649,2014.65656 224.668068,2014.65656 C228.055452,2014.65656 229.91655,2016.73003 229.91655,2019.49864 C229.91655,2023.14269 228.306892,2026.21799 225.917769,2026.21799 C224.597929,2026.21799 223.610696,2025.12513 223.92654,2023.78391 C224.305465,2022.18285 225.039935,2020.45583 225.039935,2019.29934 C225.039935,2018.26525 224.485443,2017.40263 223.338964,2017.40263 C221.99001,2017.40263 220.906171,2018.80085 220.906171,2020.67326 C220.906171,2021.86599 221.308475,2022.67293 221.308475,2022.67293 C221.308475,2022.67293 219.928201,2028.53275 219.686024,2029.55889 C219.204318,2031.60275 219.61368,2034.10754 219.648529,2034.36032 C219.66882,2034.51057 219.86115,2034.54681 219.948492,2034.43367 C220.072448,2034.27061 221.6799,2032.28375 222.22557,2030.29777 C222.380404,2029.73609 223.112668,2026.82474 223.112668,2026.82474 C223.551144,2027.66262 224.832166,2028.39885 226.194354,2028.39885 C230.248716,2028.39885 233,2024.69603 233,2019.73949 C233.000441,2015.9907 229.831413,2012.5 225.015232,2012.5 L225.015232,2012.5 Z" id="Shape"></path>
        </g>
    </g>
</svg>