<?xml version="1.0" encoding="UTF-8"?>
<svg width="21px" height="15px" viewBox="0 0 21 15" version="1.1" xmlns="http://www.w3.org/2000/svg" xmlns:xlink="http://www.w3.org/1999/xlink">
    <!-- Generator: Sketch 40.3 (33839) - http://www.bohemiancoding.com/sketch -->
    <title>Shape</title>
    <desc>Created with Sketch.</desc>
    <defs></defs>
    <g id="Page-1" stroke="none" stroke-width="1" fill="none" fill-rule="evenodd">
        <g id="Desktop-HD" transform="translate(-400.000000, -2016.000000)" fill="#000000">
            <path d="M417.760217,2022.24425 C417.576333,2022.17743 417.398436,2022.11583 417.227381,2022.05565 C415.920093,2021.60026 415.131957,2021.32541 415.131957,2020.19808 C415.131957,2019.28351 415.768282,2018.62057 416.646222,2018.62057 C417.318468,2018.62057 417.819659,2018.92953 418.269106,2019.62659 C418.311015,2019.69151 418.390128,2019.71473 418.455556,2019.67635 L419.774391,2018.93048 C419.810312,2018.91105 419.836826,2018.87503 419.847944,2018.83239 C419.859491,2018.78974 419.855642,2018.74425 419.835543,2018.70539 C419.129085,2017.31411 418.110025,2016.6379 416.720203,2016.6379 C414.605535,2016.6379 413.23795,2018.05571 413.23795,2020.24973 C413.23795,2022.49303 414.560205,2023.40096 416.999023,2024.29041 C418.412365,2024.81262 419.037143,2025.08936 419.037143,2026.20343 C419.037143,2027.45586 418.018083,2028.35621 416.62655,2028.30361 C415.169161,2028.24912 414.727412,2027.39284 414.17191,2025.99066 C413.23239,2023.61562 412.163296,2020.84301 412.153033,2020.816 C411.079663,2018.0723 408.952593,2016.5 406.316207,2016.5 C402.833527,2016.5 400,2019.64033 400,2023.50095 C400,2027.35967 402.833527,2030.5 406.316207,2030.5 C408.215774,2030.5 409.996457,2029.56695 411.200684,2027.93921 C411.235751,2027.89182 411.244303,2027.82832 411.222494,2027.77146 L410.425805,2025.73524 C410.40314,2025.67885 410.352251,2025.64094 410.296231,2025.6381 C410.2385,2025.63526 410.186755,2025.67032 410.161097,2025.72529 C409.40931,2027.31702 407.936099,2028.30551 406.315352,2028.30551 C403.925286,2028.30551 401.981245,2026.15083 401.981245,2023.50095 C401.981245,2020.85107 403.925713,2018.69639 406.31578,2018.69639 C408.055837,2018.69639 409.65007,2019.84078 410.283402,2021.54813 L412.252673,2026.52566 L412.479748,2027.08482 C413.37009,2029.38309 414.678233,2030.41281 416.727045,2030.42134 C419.163296,2030.42134 421,2028.63248 421,2026.26124 C421,2023.87862 419.811595,2022.98585 417.760217,2022.24425 L417.760217,2022.24425 Z" id="Shape"></path>
        </g>
    </g>
</svg>